<svg xmlns="http://www.w3.org/2000/svg" viewBox="0 0 135.06 93.54"><defs><style>.cls-1{isolation:isolate;}.cls-2,.cls-3,.cls-5,.cls-6{fill:none;stroke-linecap:round;stroke-miterlimit:10;stroke-width:5px;}.cls-2,.cls-3{stroke:#ff4752;}.cls-3,.cls-5{opacity:0.7;}.cls-4{fill:#ff4752;}.cls-5,.cls-6{stroke:#ff595a;}.cls-7,.cls-8{fill:#ff595a;}.cls-8{mix-blend-mode:multiply;}</style></defs><g class="cls-1"><g id="Layer_1" data-name="Layer 1"><path class="cls-2" d="M954.71,477.92l52.9-9.46a3.86,3.86,0,0,1,4.37,2.7l7.41,24.92" transform="translate(-952.21 -465.9)"/><path class="cls-3" d="M1011.13,507.12l-2.9,9a2.23,2.23,0,0,1-3.71.89l-7.36-7.42-32.26,5.27a3,3,0,0,1-3.39-2.36l-6.67-34.22" transform="translate(-952.21 -465.9)"/><path class="cls-4" d="M971.22,496.32a2.43,2.43,0,0,1,2-3,2.59,2.59,0,0,1,.87,5.1A2.42,2.42,0,0,1,971.22,496.32Z" transform="translate(-952.21 -465.9)"/><path class="cls-4" d="M983.61,494.1a2.44,2.44,0,0,1,2-3,2.59,2.59,0,1,1-2,3Z" transform="translate(-952.21 -465.9)"/><path class="cls-4" d="M996,491.88a2.41,2.41,0,0,1,2-3,2.59,2.59,0,1,1-2,3Z" transform="translate(-952.21 -465.9)"/><path class="cls-5" d="M1053.72,511.48l-28.29-7a.94.94,0,0,0-1.14,1.15l2.73,11.31a1.15,1.15,0,0,1-.82,1.38l-8.44,2.22a1.07,1.07,0,0,0-.81,1.14l2.8,34" transform="translate(-952.21 -465.9)"/><path class="cls-6" d="M1054.36,511.56h26.4a4,4,0,0,1,4,4v37.73a3.38,3.38,0,0,1-3.36,3.37l-61.62.26" transform="translate(-952.21 -465.9)"/><path class="cls-7" d="M1037,543.6h-2.17v-6.14h-6.13v6.14h-2.17V529.72h2.17v5.91h6.13v-5.91H1037Z" transform="translate(-952.21 -465.9)"/><path class="cls-7" d="M1048.48,542.64a6.13,6.13,0,0,1-1.7.84,6.42,6.42,0,0,1-2,.3,5.82,5.82,0,0,1-2.06-.34,4.25,4.25,0,0,1-1.56-1,4.56,4.56,0,0,1-1-1.6,6.18,6.18,0,0,1-.34-2.13,6.62,6.62,0,0,1,.33-2.16,4.92,4.92,0,0,1,.93-1.65,3.87,3.87,0,0,1,1.42-1,4.47,4.47,0,0,1,1.81-.37,4.15,4.15,0,0,1,1.65.32,3.43,3.43,0,0,1,1.27.92,4.17,4.17,0,0,1,.81,1.45,6.14,6.14,0,0,1,.28,1.94c0,.17,0,.33,0,.47s0,.29,0,.43h-6.37v.09a4,4,0,0,0,.27,1.23,2.6,2.6,0,0,0,.63.92,2.63,2.63,0,0,0,1,.59,3.64,3.64,0,0,0,1.27.21,4.55,4.55,0,0,0,1.6-.27,5.28,5.28,0,0,0,1.4-.78Zm-2.18-5.16a3.14,3.14,0,0,0-.16-.94,2.21,2.21,0,0,0-.41-.74,2.15,2.15,0,0,0-.64-.48,2.05,2.05,0,0,0-.83-.17,2.23,2.23,0,0,0-.83.16,1.91,1.91,0,0,0-.67.46,2.62,2.62,0,0,0-.5.73,3.52,3.52,0,0,0-.3,1Z" transform="translate(-952.21 -465.9)"/><path class="cls-7" d="M1053.2,540.79a1.38,1.38,0,0,0,.26.92.93.93,0,0,0,.74.31,1.66,1.66,0,0,0,.92-.27l.25,1.64a3.28,3.28,0,0,1-.85.29,4.12,4.12,0,0,1-.92.1,2.8,2.8,0,0,1-1-.17,1.89,1.89,0,0,1-.78-.51,2.17,2.17,0,0,1-.49-.87,4,4,0,0,1-.17-1.21V529l2.08-.25Z" transform="translate(-952.21 -465.9)"/><path class="cls-7" d="M1059.24,540.79a1.38,1.38,0,0,0,.26.92.94.94,0,0,0,.74.31,1.81,1.81,0,0,0,.49-.07,2.14,2.14,0,0,0,.44-.2l.24,1.64a3.28,3.28,0,0,1-.85.29,4.05,4.05,0,0,1-.92.1,2.84,2.84,0,0,1-1-.17,1.89,1.89,0,0,1-.78-.51,2.17,2.17,0,0,1-.49-.87,4,4,0,0,1-.16-1.21V529l2.07-.25Z" transform="translate(-952.21 -465.9)"/><path class="cls-7" d="M1067.74,533.47a5.4,5.4,0,0,1,1.92.35,4.55,4.55,0,0,1,1.58,1,4.78,4.78,0,0,1,1.09,1.6,5.6,5.6,0,0,1,.4,2.15,6,6,0,0,1-.4,2.22,4.88,4.88,0,0,1-1.1,1.64,4.55,4.55,0,0,1-1.62,1,5.7,5.7,0,0,1-2,.34,5.41,5.41,0,0,1-1.93-.34,4.52,4.52,0,0,1-1.59-1,4.64,4.64,0,0,1-1.09-1.59,6.07,6.07,0,0,1,0-4.36,4.78,4.78,0,0,1,1.1-1.65,4.51,4.51,0,0,1,1.63-1A5.71,5.71,0,0,1,1067.74,533.47Zm-.11,1.75a2.73,2.73,0,0,0-1.09.23,2.6,2.6,0,0,0-.93.66,3.3,3.3,0,0,0-.64,1.06,4,4,0,0,0-.24,1.42,4.23,4.23,0,0,0,.24,1.49,3.38,3.38,0,0,0,.65,1.08,2.66,2.66,0,0,0,1,.64,3.12,3.12,0,0,0,1.14.22,2.73,2.73,0,0,0,1.09-.23,2.84,2.84,0,0,0,.93-.65,3.19,3.19,0,0,0,.64-1.06,3.9,3.9,0,0,0,.24-1.41,4.29,4.29,0,0,0-.24-1.5,3.21,3.21,0,0,0-.65-1.08,2.65,2.65,0,0,0-.94-.65A3,3,0,0,0,1067.63,535.22Z" transform="translate(-952.21 -465.9)"/><path class="cls-7" d="M1076,540.81a1.43,1.43,0,0,1,.58.12,1.33,1.33,0,0,1,.46.31,1.62,1.62,0,0,1,.31.46,1.58,1.58,0,0,1,0,1.16,1.49,1.49,0,0,1-.31.46,1.52,1.52,0,0,1-.46.32,1.62,1.62,0,0,1-.58.11,1.42,1.42,0,0,1-1-.43,1.36,1.36,0,0,1-.32-.46,1.58,1.58,0,0,1,0-1.16,1.47,1.47,0,0,1,.32-.46,1.38,1.38,0,0,1,.47-.31A1.4,1.4,0,0,1,1076,540.81Zm1-1.63h-1.91l-.17-10.34h2.25Z" transform="translate(-952.21 -465.9)"/><path class="cls-8" d="M1045.67,481.65a1.65,1.65,0,0,0-2.23.49l-7.52,8.26a1.4,1.4,0,1,0,2,1.78l7.52-8.26A1.67,1.67,0,0,0,1045.67,481.65Z" transform="translate(-952.21 -465.9)"/><path class="cls-8" d="M1038.66,499.1l9.47-2.06a2.43,2.43,0,0,0,1.78-2,1.08,1.08,0,0,0-1.39-1.26l-9.48,2.06a2.43,2.43,0,0,0-1.77,1.95" transform="translate(-952.21 -465.9)"/><path class="cls-8" d="M1030.34,491.54a2.43,2.43,0,0,0,1.78-2l1.16-9.63a1.08,1.08,0,0,0-1.39-1.26,2.43,2.43,0,0,0-1.77,1.95l-1.16,9.63" transform="translate(-952.21 -465.9)"/></g></g></svg>