<svg id="Layer_1" data-name="Layer 1" xmlns="http://www.w3.org/2000/svg" viewBox="0 0 479.93 272.24"><defs><style>.cls-1{fill:#fff;}</style></defs><path class="cls-1" d="M.12,164.55c28.59-17.43,48-31.69,70.23-27.36,22.2,4.59,47.46,27.77,84.27,10,36.81-17.52,85.8-76,111-82.69,25.55-6.42,27.65,38.72,51.47,73.15,24.12,34.16,69.95,57.36,89.62,89.79s13.21,74.35-21.37,93.64-97.25,16.19-141.91,11.6c-45-4.83-71.94-11.15-90.43-23.44-18.18-12.29-27.57-30.55-46-37.48s-45.89-2.28-82.34-8.23c-36.77-5.95-82.52-22.51-86.54-41.35C-66.18,203.34-28.46,182.23.12,164.55Z" transform="translate(62.19 -63.88)"/></svg>