<svg height="74" viewBox="0 0 74 74" width="74" xmlns="http://www.w3.org/2000/svg"><g fill-rule="evenodd" transform="translate(0 -11)"><path d="m68 71.6h-3v-33.7c0-2.3-1.9-3.9-4.2-3.9h-49.5c-2.3 0-4.2 1.6-4.2 3.9v33.7h-3c-.3 0-.5-.1-.5.2v.5c0 2.5 2.1 4.9 4.6 4.9h32.4v3.3c0 2 1.6 3.8 3.6 3.8l12.1-.2c2 0 3.6-1.7 3.6-3.7v-3.3h4c2.5 0 4.6-2.4 4.6-4.9v-.5c0-.2-.2-.1-.5-.1zm-32.7-36c.4-.4 1.1-.4 1.4 0 .2.2.3.5.3.7 0 .3-.1.5-.3.7s-.5.3-.7.3c-.3 0-.5-.1-.7-.3s-.3-.5-.3-.7c0-.3.1-.5.3-.7zm15 47.4c-.9 0-1.5-.7-1.5-1.5s.7-1.5 1.5-1.5c.9 0 1.5.7 1.5 1.5s-.7 1.5-1.5 1.5zm7.6-4.3c0 .3-.2.5-.5.5h-14.3c-.3 0-.5-.2-.5-.5v-21.3c0-.3.2-.5.5-.5h14.2c.3 0 .5.2.5.5v21.3zm-12.7-24.5c0-.3.1-.6.3-.7.4-.4 1.1-.4 1.4 0 .2.2.3.5.3.7 0 .3-.1.5-.3.7s-.5.3-.7.3c-.3 0-.5-.1-.7-.3s-.3-.4-.3-.7zm3 .2c0-.6.5-1 1-1h2.1c.6 0 1 .5 1 1 0 .6-.5 1-1 1h-2.1c-.5 0-1-.5-1-1zm13.7 15.2h-2v-14.4c0-2-1.6-3.7-3.6-3.7h-12.1c-2 0-3.6 1.6-3.6 3.6v14.4h-30.4v-30.8h51.7z" fill-rule="nonzero"/><g font-family="Helvetica"><text font-size="5.2369"><tspan x="30.6295" y="20.3977">+</tspan></text><text font-size="5.2369"><tspan x="4.546" y="30.8005">+</tspan></text><text font-size="5.2369"><tspan x="55.3756" y="26.0378">+</tspan></text><text font-size="5.2369"><tspan x="60.5035" y="18.094">+</tspan></text><text font-size="5.2369"><tspan x="62.9556" y="27.0857">+</tspan></text><text font-size="13.8291"><tspan x="44.0123" y="22.5446">+</tspan></text><text font-size="28.107"><tspan x="6.9981" y="28.6985">+</tspan></text><text font-size="8.2115"><tspan x="68.4644" y="36.3195">+</tspan></text><text font-size="8.2115"><tspan x="25.0552" y="27.0852">+</tspan></text><text font-size="8.2115"><tspan x="38.1798" y="15.864">+</tspan></text><text font-size="8.2115"><tspan x=".0865" y="38.6526">+</tspan></text><text font-size="8.2115"><tspan x="38.1802" y="27.0852">+</tspan></text></g></g></svg>