<?xml version="1.0" encoding="UTF-8"?>
<svg width="16px" height="16px" viewBox="0 0 16 16" version="1.1" xmlns="http://www.w3.org/2000/svg" xmlns:xlink="http://www.w3.org/1999/xlink">
    <title>favicon-rounded</title>
    <g id="Page-1" stroke="none" stroke-width="1" fill="none" fill-rule="evenodd">
        <g id="favicon-rounded" fill-rule="nonzero">
            <rect id="Rectangle" fill="#FED771" x="0" y="0" width="16" height="16"></rect>
            <rect id="Rectangle" fill="#FF595A" x="0" y="0" width="7" height="12"></rect>
            <rect id="Rectangle" fill="#65CBC9" x="9" y="4" width="7" height="12"></rect>
            <rect id="Rectangle" fill="#000000" x="1.5" y="1.5" width="13" height="13" rx="6.5"></rect>
            <path d="M8.33,4 L8.33,5.59 L10.08,5.59 L10.08,6.76 L8.33,6.76 L8.33,9.48 C8.33,10.24 8.57,10.62 9.27,10.62 C9.5115671,10.6303026 9.75347012,10.610144 9.99,10.56 L9.99,11.74 C9.55663289,11.8568349 9.10871207,11.9107201 8.66,11.9 C8.09009072,11.9307279 7.52847586,11.7530017 7.08,11.4 C6.64491203,10.9307077 6.43350503,10.2964867 6.5,9.66 L6.5,6.76 L5.5,6.76 L5.5,5.59 L6.5,5.59 L6.5,4.44 L8.33,4 Z" id="Path" fill="#FFFFFF"></path>
        </g>
    </g>
</svg>