<svg role="img" aria-label="Taylor Design" height="53" viewBox="0 0 292 53" width="292" xmlns="http://www.w3.org/2000/svg"><title>Taylor Design</title><g fill="#fff"><path d="m0 19.8v-6.7h3.3v-5.8l8.6-.8v6.6h6.3v6.7h-6.3v9.4c0 1.1.2 1.9.7 2.4s1.2.8 2.1.8c.6 0 1.2-.1 1.7-.3s1.1-.5 1.7-.9l1 6.9c-1 .5-2 .9-3.1 1.2s-2.3.4-3.5.4c-3 0-5.3-.8-6.9-2.4s-2.4-4.1-2.4-7.4v-10.1z"/><path d="m22.1 15.8c1.6-1 3.4-1.8 5.3-2.4s4-.8 6.2-.8c1.9 0 3.6.2 5.1.6s2.7 1.1 3.7 2 1.8 2 2.3 3.3.8 2.9.8 4.7v7.6c0 1.2.5 1.8 1.5 1.8.3 0 .6-.1.9-.2s.5-.2.8-.4l.7 6.5c-.7.4-1.5.7-2.3.9s-1.7.3-2.7.3c-1.4 0-2.6-.3-3.5-.8s-1.7-1.1-2.2-1.9c-.4.4-.8.7-1.4 1.1-.5.3-1.1.6-1.7.9s-1.3.5-2.1.6c-.8.2-1.6.2-2.5.2-1.4 0-2.7-.2-3.8-.6s-2.1-.9-2.9-1.6-1.4-1.5-1.8-2.5c-.4-.9-.6-2-.6-3.1 0-1.3.3-2.4.8-3.4s1.3-1.9 2.3-2.6 2.2-1.2 3.6-1.6 3-.5 4.8-.5c.7 0 1.3 0 1.8.1s1.1.1 1.6.2v-.9c0-.7-.1-1.3-.3-1.8s-.5-.9-.9-1.2-.9-.6-1.5-.7-1.3-.2-2-.2c-1.6 0-3.1.2-4.5.7s-2.7 1.2-4 2.1zm14.7 13.5c-.4-.1-.8-.2-1.2-.2s-.8-.1-1.3-.1c-.7 0-1.3.1-1.8.2s-.9.3-1.2.5-.6.5-.7.8c-.2.3-.2.7-.2 1 0 .4.1.7.2.9.1.3.3.5.6.7.2.2.5.4.9.4.3.1.7.1 1.2.1.8 0 1.5-.1 2.1-.4s1.1-.6 1.6-1.1v-2.8z"/><path d="m76.5 13.1c-.4 2.1-.9 4.2-1.4 6.5-.6 2.3-1.2 4.5-1.8 6.8-.7 2.2-1.4 4.4-2.2 6.6-.8 2.1-1.6 4.1-2.5 6-1 2.1-2 4-3.2 5.6s-2.4 3-3.7 4.1-2.7 1.9-4.2 2.5-3 .8-4.6.8c-1 0-2-.1-2.9-.4s-1.8-.6-2.5-1l1-7.1c.6.4 1.2.8 1.9 1s1.4.3 2 .3 1.2-.1 1.8-.3 1.1-.5 1.7-.9c.5-.4 1-.8 1.4-1.4.4-.5.8-1.1 1.1-1.8-1.2-2.7-2.2-5.3-3.2-7.7-.9-2.4-1.8-4.7-2.5-6.9s-1.4-4.3-2-6.4-1.1-4.1-1.5-6.2h8.9c.3 1.5.6 2.9 1 4.4s.8 3 1.2 4.5.9 3 1.4 4.5 1 3 1.6 4.4c.5-1.6 1-3.2 1.5-4.7.4-1.5.8-3 1.2-4.5s.7-2.9 1-4.4c.3-1.4.6-2.9.8-4.3z"/><path d="m88.6 30.1c0 .8.2 1.4.5 1.8s.8.6 1.5.6c.4 0 .7 0 1-.1s.6-.2.8-.4l.9 6.7c-.8.3-1.7.6-2.6.8-1 .2-1.9.3-2.8.3-1.3 0-2.4-.2-3.4-.5-1-.4-1.8-.9-2.5-1.6s-1.2-1.6-1.5-2.7-.5-2.4-.5-3.9v-29.8l8.6-.9z"/><path d="m110 12.5c1.9 0 3.7.3 5.4.9s3.2 1.5 4.4 2.7c1.3 1.2 2.3 2.6 3 4.2s1.1 3.5 1.1 5.6c0 2.2-.4 4.1-1.1 5.8s-1.7 3.2-3 4.4-2.8 2.1-4.6 2.7-3.7.9-5.7.9-3.8-.3-5.5-.9-3.2-1.5-4.5-2.7-2.3-2.6-3-4.2c-.7-1.7-1.1-3.5-1.1-5.6 0-2.2.4-4.1 1.1-5.9.7-1.7 1.7-3.2 3-4.4s2.8-2.1 4.6-2.7c1.9-.5 3.8-.8 5.9-.8zm-.4 7.3c-.7 0-1.4.1-2 .4s-1.2.7-1.7 1.2-.9 1.2-1.2 2-.4 1.7-.4 2.6c0 1.1.1 2 .4 2.8s.7 1.5 1.2 2 1.1.9 1.8 1.2 1.4.4 2.1.4 1.4-.1 2.1-.4c.6-.3 1.2-.7 1.7-1.2s.9-1.2 1.2-2 .4-1.6.4-2.6c0-1.1-.1-2-.4-2.8s-.7-1.5-1.2-2-1.1-.9-1.8-1.2-1.4-.4-2.2-.4z"/><path d="m128.9 13.1h6.8l.5 2.9c.4-.5.9-1 1.3-1.5.4-.4.9-.8 1.4-1.1s1-.5 1.5-.7 1.1-.2 1.7-.2c.5 0 .9 0 1.4.1s.8.2 1.2.4l-.6 7.6c-.4-.2-.7-.3-1.1-.4s-.7-.1-1.1-.1-.8.1-1.1.2c-.4.1-.7.3-1.1.5s-.7.5-1.1.8c-.3.3-.7.7-1 1.2v16.5h-8.6v-26.2z"/><path d="m167.6 39.2-.3-3.1c-1.2 1.2-2.5 2.1-3.9 2.7s-2.9.8-4.5.8-3.1-.3-4.4-.9-2.5-1.5-3.4-2.6c-1-1.1-1.7-2.4-2.2-4s-.8-3.3-.8-5.2c0-2.1.3-4.1 1-5.9s1.7-3.3 3.1-4.6 3.1-2.3 5.1-2.9c2-.7 4.4-1 7-1h1.1c.4 0 .8 0 1.2.1v-12l4.4-.6v39.2zm-1-22.8c-.5 0-1 0-1.4 0-.5 0-.9 0-1.3 0-2 0-3.6.3-5.1.8-1.4.5-2.6 1.2-3.5 2.2-.9.9-1.6 2-2 3.3s-.7 2.7-.7 4.2c0 1.4.2 2.6.5 3.7s.8 2.1 1.5 2.9c.6.8 1.4 1.4 2.3 1.9.9.4 1.9.7 3.1.7 1.3 0 2.6-.3 3.7-.9s2.1-1.4 3-2.5v-16.3z"/><path d="m198.9 36.5c-1.3 1-2.8 1.8-4.3 2.4-1.6.5-3.3.8-5.2.8s-3.7-.3-5.2-.9c-1.6-.6-2.9-1.5-4-2.7s-1.9-2.6-2.5-4.2-.9-3.5-.9-5.6.3-4 .9-5.7 1.4-3.1 2.4-4.3 2.2-2.1 3.6-2.8 2.9-1 4.6-1c1.5 0 2.9.3 4.2.8s2.3 1.4 3.2 2.4 1.6 2.3 2.1 3.8.7 3.1.7 5v1c0 .3 0 .6-.1 1h-17.2v.5c.1 1.4.3 2.6.7 3.7s1 2 1.8 2.8c.7.8 1.6 1.4 2.7 1.8 1 .4 2.2.6 3.5.6 1.6 0 3-.3 4.3-.8s2.5-1.2 3.7-2.2zm-4.7-13.3c0-1-.2-2-.5-2.8-.3-.9-.7-1.6-1.2-2.2s-1.2-1.1-1.9-1.5-1.6-.5-2.5-.5-1.7.2-2.4.5-1.4.8-2 1.4-1.1 1.3-1.5 2.2-.7 1.9-.9 3h12.9z"/><path d="m206.3 34.1c1.1.7 2.1 1.2 3.2 1.5s2.2.5 3.4.5c.8 0 1.5-.1 2.1-.3s1.1-.4 1.6-.7c.4-.3.8-.7 1-1.1s.4-1 .4-1.5c0-.7-.2-1.3-.6-1.9s-.9-1-1.5-1.3c-.6-.4-1.3-.7-2.1-1s-1.6-.6-2.4-1-1.6-.7-2.4-1.1-1.5-.9-2.1-1.5-1.1-1.2-1.5-2-.6-1.7-.6-2.8.2-2.1.6-3 1-1.7 1.8-2.3 1.7-1.1 2.8-1.5c1.1-.3 2.3-.5 3.7-.5 1.3 0 2.6.2 3.8.5s2.3.8 3.3 1.4l-1.1 3.4c-.9-.6-1.8-1-2.8-1.4s-2-.5-3.1-.5c-.7 0-1.4.1-2 .3s-1.1.4-1.5.7-.7.6-.9 1.1c-.2.4-.3.9-.3 1.4 0 .7.2 1.3.6 1.8s.9.9 1.5 1.3 1.3.7 2.1 1 1.6.6 2.4 1c.8.3 1.6.7 2.4 1.1s1.5.9 2.1 1.5 1.1 1.3 1.5 2.1.6 1.8.6 2.9c0 1.2-.2 2.2-.7 3.1s-1.1 1.7-1.9 2.4-1.8 1.2-3 1.5c-1.2.4-2.4.5-3.8.5-.7 0-1.4 0-2.1-.1s-1.4-.2-2-.4-1.3-.4-1.8-.7c-.6-.3-1.1-.6-1.6-.9z"/><path d="m231.8 1.3c.5 0 .9.1 1.3.3s.7.4 1 .7.5.6.7 1.1c.2.4.3.8.3 1.3s-.1.9-.3 1.3-.4.7-.7 1-.6.5-1 .7-.8.3-1.3.3-.9-.1-1.3-.3-.7-.4-1-.7-.5-.6-.7-1-.3-.8-.3-1.3.1-.9.3-1.3.4-.8.7-1.1.6-.5 1-.7.9-.3 1.3-.3zm-2.1 11.8h4.4v26.1h-4.4z"/><path d="m260.5 16.6c-.1 0-.2 0-.3 0s-.2 0-.3 0c.5.6.9 1.3 1.2 2.1s.5 1.7.5 2.7c0 1.4-.3 2.7-.8 3.8s-1.2 2.1-2.1 2.9-2 1.4-3.2 1.8-2.5.6-3.9.6c-.4 0-.7 0-1.1-.1s-.7-.1-1-.2c-.4.4-.7.8-.9 1.3s-.3.9-.3 1.5c0 .4.1.8.2 1.2.2.4.4.7.7 1s.7.5 1.1.6.9.2 1.5.2h3c1.4 0 2.7.2 3.9.5s2.1.8 3 1.5c.8.6 1.4 1.4 1.9 2.3s.7 2 .7 3.1c0 1.4-.3 2.6-.8 3.7-.6 1.1-1.4 2-2.4 2.8s-2.3 1.3-3.8 1.7-3.2.6-5.1.6c-1.8 0-3.3-.2-4.8-.6-1.4-.4-2.6-.9-3.6-1.6s-1.8-1.5-2.3-2.5-.8-2.1-.8-3.4c0-.9.1-1.7.4-2.5s.6-1.5 1.1-2.1 1.1-1.2 1.8-1.6c.7-.5 1.5-.8 2.4-1.1-.6-.4-1.1-.9-1.4-1.5s-.5-1.4-.5-2.2.2-1.5.5-2.2.7-1.3 1.2-1.9c-1.2-.7-2.2-1.7-2.9-2.9s-1.1-2.7-1.1-4.3c0-1.5.3-2.8.8-3.9s1.3-2.1 2.2-2.9 2-1.4 3.2-1.8 2.5-.6 3.9-.6c.6 0 1.2 0 1.8.1s1.1.2 1.7.4h8.9v3.6h-4.2zm-9.7 22.9c-2 0-3.5.4-4.5 1.1-1 .8-1.5 1.8-1.5 3.1 0 .8.2 1.4.5 2 .4.6.8 1.1 1.5 1.5.6.4 1.4.7 2.4 1 .9.2 2 .3 3.1.3 1.2 0 2.2-.1 3.2-.3.9-.2 1.7-.6 2.4-1s1.2-1 1.5-1.6c.4-.6.5-1.3.5-2 0-1.3-.5-2.3-1.5-3s-2.4-1.1-4.1-1.1zm.9-23.4c-.7 0-1.4.1-2.1.4-.7.2-1.3.6-1.8 1.1s-.9 1-1.2 1.7-.5 1.4-.5 2.2c0 .9.2 1.6.5 2.3s.7 1.3 1.3 1.7 1.1.8 1.8 1.1 1.4.4 2.2.4c.7 0 1.4-.1 2.1-.4s1.3-.6 1.8-1.1.9-1 1.2-1.7.5-1.4.5-2.2c0-.9-.2-1.6-.5-2.3s-.7-1.3-1.3-1.8c-.5-.5-1.1-.9-1.8-1.1s-1.4-.3-2.2-.3z"/><path d="m269.9 13.1h3.5l.3 3c1-1.1 2.3-2 3.6-2.6 1.4-.6 2.9-.9 4.5-.9 1.4 0 2.6.2 3.8.6s2.2 1.1 3.1 1.9c.9.9 1.6 2 2.1 3.3s.8 2.9.8 4.7v16.1h-4.4v-15.5c0-1.3-.2-2.5-.5-3.4s-.8-1.7-1.4-2.3-1.3-1-2-1.3-1.6-.4-2.4-.4c-1.2 0-2.4.3-3.5.9s-2.1 1.4-3 2.4v19.6h-4.4v-26.1z"/></g></svg>
