<svg xmlns="http://www.w3.org/2000/svg" viewBox="0 0 121.67 112.13"><defs><style>.cls-1{isolation:isolate;}.cls-2,.cls-3{fill:#fcd672;mix-blend-mode:multiply;}.cls-2{opacity:0.6;}</style></defs><g class="cls-1"><g id="Layer_1" data-name="Layer 1"><path class="cls-2" d="M336.48,548.82v24.39h0a2.12,2.12,0,0,0,4.24,0h0V548.82h0a2.12,2.12,0,0,0-4.24,0Z" transform="translate(-252.9 -463.2)"/><path class="cls-3" d="M347.53,554.74l-7.43-7.42a2.12,2.12,0,0,0-3,0l-8,7.95a2.12,2.12,0,0,0,3,3l6.45-6.45,5.93,5.92a2.12,2.12,0,0,0,3-3Z" transform="translate(-252.9 -463.2)"/><path class="cls-3" d="M357.69,536.09a14.72,14.72,0,0,0-7.05,1.8,16,16,0,0,0-15.22-11.34,2.12,2.12,0,0,0,0,4.24,11.7,11.7,0,0,1,11.64,10.84v0a2.22,2.22,0,0,0,.29,1,2.13,2.13,0,0,0,2.46.93,2.07,2.07,0,0,0,.82-.49l0,0a10.61,10.61,0,1,1,7.1,18.48,2.13,2.13,0,0,0,0,4.25,14.85,14.85,0,1,0,0-29.7Z" transform="translate(-252.9 -463.2)"/><path class="cls-2" d="M335.42,526.55a15.92,15.92,0,0,0-15.91,15.9c0,.16,0,.31,0,.46a11.9,11.9,0,0,0-3.2-.46,11.67,11.67,0,1,0,0,23.34,2.13,2.13,0,0,0,0-4.25,7.42,7.42,0,1,1,0-14.84,7.32,7.32,0,0,1,4.62,1.61,2.12,2.12,0,0,0,3.42-1.23,2.11,2.11,0,0,0-.08-1.09l0,0a11.66,11.66,0,0,1,11.11-15.23,2.12,2.12,0,0,0,0-4.24Z" transform="translate(-252.9 -463.2)"/><path class="cls-3" d="M346.11,499.5l5.28-13.78a1.73,1.73,0,0,1,3.24,1.24l-5.28,13.78h0a.87.87,0,1,0,1.62.62h0l5.28-13.78a3.47,3.47,0,0,0-6.48-2.48l-5.28,13.78h0a.87.87,0,1,0,1.62.62Z" transform="translate(-252.9 -463.2)"/><path class="cls-3" d="M359.53,469.32a15.62,15.62,0,0,0-18.34,23.61l-1.26,3.27a1.74,1.74,0,0,0,3.25,1.25l1.59-4.17s0,0,0,0a1.7,1.7,0,0,0-.25-1.74,12.16,12.16,0,1,1,11.35,4.34,1.75,1.75,0,0,0-1.35,1.1l-1.6,4.16a1.74,1.74,0,0,0,3.25,1.25l1.25-3.27a15.63,15.63,0,0,0,2.13-29.83Zm-17.78,22.32.05-.06-.06.08Zm18.4-23.94a.87.87,0,0,0,1.12-.5l.94-2.44a.88.88,0,0,0-.5-1.12.89.89,0,0,0-1.13.5l-.93,2.43A.89.89,0,0,0,360.15,467.7Zm-22.61,8.06-2.43-.93a.87.87,0,0,0-.62,1.62l2.43.94a.87.87,0,0,0,.62-1.63Zm36.48,14-2.44-.93a.87.87,0,0,0-.62,1.62l2.44.93a.87.87,0,1,0,.62-1.62Zm-36.77,0-2.38,1.06a.87.87,0,0,0-.44,1.15.88.88,0,0,0,1.15.44l2.38-1.07a.87.87,0,1,0-.71-1.58Zm34-13.27,2.38-1.06a.86.86,0,1,0-.7-1.58l-2.38,1.06a.86.86,0,1,0,.7,1.58ZM346,466.8a.87.87,0,0,0,1.59-.7l-1.06-2.38a.87.87,0,0,0-1.59.7Zm16.44,32.59a.87.87,0,1,0-1.59.71l1.06,2.38a.87.87,0,1,0,1.59-.71Z" transform="translate(-252.9 -463.2)"/><path class="cls-2" d="M337.45,502.69l16.21,6.21h0a1.73,1.73,0,1,0,1.24-3.24h0l-16.21-6.21h0a1.73,1.73,0,0,0-1.24,3.24Z" transform="translate(-252.9 -463.2)"/><path class="cls-2" d="M337.83,506.55l13,5a.87.87,0,1,0,.62-1.62l-13-5a.87.87,0,0,0-.62,1.62Zm12.35,6.59-13-5a.87.87,0,0,0-1.12.5.86.86,0,0,0,.5,1.12l13,5a.87.87,0,1,0,.62-1.62Z" transform="translate(-252.9 -463.2)"/><path class="cls-2" d="M337,513.66l9.73,3.72h0a.86.86,0,0,0,1.12-.5.87.87,0,0,0-.5-1.12h0L337.59,512h0a.87.87,0,1,0-.63,1.62Z" transform="translate(-252.9 -463.2)"/><path class="cls-2" d="M277.07,523.72l-8.26-16.52V488.61a2.12,2.12,0,0,0-4.24,0V507.2l-8.26,16.52a2.12,2.12,0,1,0,3.79,1.9l6.59-13.17,6.58,13.17a2.12,2.12,0,1,0,3.8-1.9Z" transform="translate(-252.9 -463.2)"/><path class="cls-3" d="M255,498.16h24.39a2.12,2.12,0,0,0,0-4.24H255a2.12,2.12,0,0,0,0,4.24Z" transform="translate(-252.9 -463.2)"/><path class="cls-3" d="M262.44,482.25a4.25,4.25,0,1,1,4.25,4.24A4.25,4.25,0,0,1,262.44,482.25Zm4.25,8.49a8.49,8.49,0,1,0-8.49-8.49A8.5,8.5,0,0,0,266.69,490.74Z" transform="translate(-252.9 -463.2)"/><path class="cls-3" d="M282.59,528.91a6.37,6.37,0,1,0,6.37,6.37A6.38,6.38,0,0,0,282.59,528.91Zm0,8.49a2.12,2.12,0,1,1,2.13-2.12A2.12,2.12,0,0,1,282.59,537.4Zm31.82-29.7a6.37,6.37,0,1,0,6.36,6.37A6.37,6.37,0,0,0,314.41,507.7Zm0,8.49a2.12,2.12,0,1,1,2.12-2.12A2.12,2.12,0,0,1,314.41,516.19Z" transform="translate(-252.9 -463.2)"/><path class="cls-3" d="M290,483.31h22.27a2.12,2.12,0,0,0,0-4.24H290a2.12,2.12,0,0,0,0,4.24Zm22.27,4.24H290a2.13,2.13,0,0,0,0,4.25h22.27a2.13,2.13,0,0,0,0-4.25ZM305.93,496H290a2.12,2.12,0,0,0,0,4.24h15.91a2.12,2.12,0,0,0,0-4.24Z" transform="translate(-252.9 -463.2)"/><path class="cls-2" d="M312.73,515.75a2.12,2.12,0,0,0-3,0l-5.92,5.92-3.81-3.8a2.12,2.12,0,0,0-3,0L284.28,530.6a2.12,2.12,0,0,0,3,3l11.22-11.23,3.81,3.8a2.11,2.11,0,0,0,3,0l7.43-7.42A2.12,2.12,0,0,0,312.73,515.75Z" transform="translate(-252.9 -463.2)"/></g></g></svg>