<svg xmlns="http://www.w3.org/2000/svg" viewBox="0 0 113.18 99.25"><defs><style>.cls-1{isolation:isolate;}.cls-2,.cls-3{fill:#62cbc9;}.cls-2,.cls-3,.cls-4,.cls-5,.cls-6,.cls-7{mix-blend-mode:multiply;}.cls-3{opacity:0.6;}.cls-4,.cls-5,.cls-6,.cls-7{fill:none;stroke-linecap:round;stroke-linejoin:round;}.cls-4,.cls-7{stroke:#aceae7;}.cls-4,.cls-5{stroke-width:2.2px;}.cls-5,.cls-6{stroke:#62cbc9;}.cls-6,.cls-7{stroke-width:3.3px;}</style></defs><g class="cls-1"><g id="Layer_1" data-name="Layer 1"><path class="cls-2" d="M546.11,528.5a1.59,1.59,0,0,1,.27,2.23L543,535.12a1.59,1.59,0,1,1-2.51-2l3.43-4.38A1.58,1.58,0,0,1,546.11,528.5Z" transform="translate(-433.55 -471.14)"/><path class="cls-2" d="M534.73,532.73A1.6,1.6,0,0,1,535,535l-7.83,10a1.59,1.59,0,1,1-2.51-2l7.84-10A1.58,1.58,0,0,1,534.73,532.73Z" transform="translate(-433.55 -471.14)"/><path class="cls-2" d="M539.74,536.65a1.59,1.59,0,0,1,.48,1.89c-1.27,2.94-1.53,9.06-.51,12.6a1.59,1.59,0,0,1-1,1.94c-1,.36-2.22.73-3.47,1.14-7.22,2.31-17.1,5.49-23.5,10.48a1.59,1.59,0,1,1-1.95-2.51c6.84-5.34,17-8.61,24.47-11l2.07-.67c-.79-4.23-.39-10,1-13.25a1.58,1.58,0,0,1,2.09-.83A1.63,1.63,0,0,1,539.74,536.65Z" transform="translate(-433.55 -471.14)"/><path class="cls-3" d="M529.71,528.81a2,2,0,0,1,.29.29,1.59,1.59,0,0,1-.3,2.23c-2.77,2.13-8.31,3.92-12.61,4.18-.05.69-.1,1.42-.15,2.17-.51,7.8-1.23,18.48-4.75,26.41a1.59,1.59,0,1,1-2.91-1.29c3.3-7.42,4-17.77,4.49-25.33.09-1.32.17-2.54.26-3.65a1.58,1.58,0,0,1,1.64-1.46c3.67.12,9.55-1.6,12.1-3.55A1.59,1.59,0,0,1,529.71,528.81Z" transform="translate(-433.55 -471.14)"/><path class="cls-2" d="M530.15,523.1l15.07,11.77a1.59,1.59,0,0,1-2,2.51L528.19,525.6a1.59,1.59,0,1,1,2-2.5Z" transform="translate(-433.55 -471.14)"/><path class="cls-2" d="M536.08,520.67a1.59,1.59,0,0,1,.28,2.23l-3.43,4.4a1.59,1.59,0,0,1-2.23.28h0a1.59,1.59,0,0,1-.27-2.23l3.43-4.41a1.59,1.59,0,0,1,2.23-.27Z" transform="translate(-433.55 -471.14)"/><circle class="cls-2" cx="92.37" cy="72.88" r="3.18"/><path class="cls-2" d="M476.58,541.22a1.62,1.62,0,0,0-2.24.51l-16.5,26.17a1.63,1.63,0,0,0,2.76,1.73l16.49-26.16A1.63,1.63,0,0,0,476.58,541.22Zm7.58-12a1.62,1.62,0,0,0-2.24.51L477,537.49a1.63,1.63,0,0,0,2.76,1.73l4.9-7.78A1.62,1.62,0,0,0,484.16,529.2Z" transform="translate(-433.55 -471.14)"/><path class="cls-3" d="M458.89,535.26l-12.62,10a2.44,2.44,0,1,0,3,3.83l12.63-10a2.44,2.44,0,0,0-3-3.83Zm37.7,15.83-10-12.63a2.44,2.44,0,1,0-3.82,3l10,12.63a2.44,2.44,0,1,0,3.82-3Z" transform="translate(-433.55 -471.14)"/><path class="cls-2" d="M449.6,545.56a2.44,2.44,0,0,0-3.64,3.25l10.16,11.38a2.44,2.44,0,1,0,3.64-3.26Zm47.08,5.64a2.45,2.45,0,0,0-3.4-.6l-12.48,8.76a2.44,2.44,0,1,0,2.8,4l12.48-8.76A2.43,2.43,0,0,0,496.68,551.2Z" transform="translate(-433.55 -471.14)"/><path class="cls-3" d="M498.71,505.44a4.64,4.64,0,0,1,0-9.27h0a2.78,2.78,0,1,0,0-5.56h0a10.2,10.2,0,0,0,0,20.39h0a2.78,2.78,0,0,0,0-5.56Z" transform="translate(-433.55 -471.14)"/><path class="cls-2" d="M502.69,498.41a4.64,4.64,0,0,1-4,7h0a2.78,2.78,0,0,0,0,5.56h0a10.19,10.19,0,0,0,8.74-15.45h0a2.78,2.78,0,0,0-4.76,2.86Z" transform="translate(-433.55 -471.14)"/><circle class="cls-2" cx="65.17" cy="29.66" r="2.78"/><path class="cls-3" d="M498.71,471.14a.92.92,0,0,0-.92.93v7.41a.93.93,0,1,0,1.85,0v-7.41A.92.92,0,0,0,498.71,471.14Zm6.22,9.92,3.71-3.7a.93.93,0,0,0,0-1.31.91.91,0,0,0-1.31,0l-3.71,3.7a.93.93,0,0,0,0,1.31A.91.91,0,0,0,504.93,481.06Zm-14.83-5a.91.91,0,0,0-1.31,0,.93.93,0,0,0,0,1.31l3.71,3.7a.91.91,0,0,0,1.31,0,.93.93,0,0,0,0-1.31Zm8.61,45.14a.93.93,0,0,0-.92.93v7.42a.93.93,0,0,0,1.85,0v-7.42A.93.93,0,0,0,498.71,521.19Zm6.22-.65a.93.93,0,1,0-1.31,1.31l3.71,3.71a.93.93,0,1,0,1.31-1.31Zm-12.43,0-3.71,3.71a.93.93,0,0,0,1.31,1.31l3.71-3.71a.93.93,0,1,0-1.31-1.31Z" transform="translate(-433.55 -471.14)"/><path class="cls-2" d="M528,499.61c-5-6-17.55-17.35-29.24-17.35a1.86,1.86,0,0,0,0,3.71c9,0,19.66,8.47,25.36,14.83-5.7,6.37-16.36,14.83-25.36,14.83a1.86,1.86,0,0,0,0,3.71C510.4,519.34,522.94,508,528,502A1.87,1.87,0,0,0,528,499.61Z" transform="translate(-433.55 -471.14)"/><path class="cls-3" d="M498.71,515.63c-9,0-19.65-8.46-25.35-14.83,5.7-6.36,16.36-14.83,25.35-14.83a1.86,1.86,0,1,0,0-3.71c-11.68,0-24.23,11.35-29.23,17.35a1.87,1.87,0,0,0,0,2.38c5,6,17.55,17.35,29.23,17.35a1.86,1.86,0,1,0,0-3.71Z" transform="translate(-433.55 -471.14)"/><path class="cls-4" d="M447.84,502.09a3.31,3.31,0,0,1-1.23-5.45,3.15,3.15,0,0,1,1.23-.77" transform="translate(-433.55 -471.14)"/><path class="cls-5" d="M447.84,502.09a3.33,3.33,0,0,1,1.24.78,3.3,3.3,0,0,1,0,4.66,3.33,3.33,0,0,1-1.24.78" transform="translate(-433.55 -471.14)"/><path class="cls-4" d="M441.25,508.31a3.3,3.3,0,0,0,0-6.22,3.3,3.3,0,0,1-1.24-5.45,3.19,3.19,0,0,1,1.24-.77" transform="translate(-433.55 -471.14)"/><path class="cls-5" d="M454.44,508.31a3.33,3.33,0,0,0,1.24-.78,3.3,3.3,0,0,0,0-4.66,3.33,3.33,0,0,0-1.24-.78,3.31,3.31,0,0,1-1.23-5.45,3.15,3.15,0,0,1,1.23-.77" transform="translate(-433.55 -471.14)"/><path class="cls-6" d="M448.4,512.73h13.75c0,4.95-3.85,11-8.8,13.75h-5" transform="translate(-433.55 -471.14)"/><path class="cls-7" d="M448.4,526.48H444c-4.95-2.75-8.8-8.8-8.8-13.75h13.2" transform="translate(-433.55 -471.14)"/><path class="cls-5" d="M465.45,516.58c3.3,1.65,2.75,8.8-3.3,7.15" transform="translate(-433.55 -471.14)"/></g></g></svg>