<svg xmlns="http://www.w3.org/2000/svg" viewBox="0 0 114.37 93.38"><defs><style>.cls-1{isolation:isolate;}.cls-2,.cls-3{fill:#215975;mix-blend-mode:multiply;}.cls-3{opacity:0.6;}</style></defs><g class="cls-1"><g id="Layer_1" data-name="Layer 1"><path class="cls-2" d="M121.18,524.86a23.44,23.44,0,1,1,23.44-23.44h0a2.7,2.7,0,1,0,5.4,0h0a28.85,28.85,0,1,0-28.84,28.85h0a2.71,2.71,0,0,0,0-5.41Z" transform="translate(-70.57 -472.57)"/><path class="cls-3" d="M122.45,502.7l8.12-8.12h0A1.8,1.8,0,1,0,128,492h0l-8.12,8.12h0a1.8,1.8,0,0,0,2.55,2.55Z" transform="translate(-70.57 -472.57)"/><path class="cls-2" d="M121.82,500.78l-14.43-14.42h0a.9.9,0,0,0-1.27,0,.91.91,0,0,0,0,1.28h0l14.42,14.42h0a.91.91,0,0,0,1.28-1.28Z" transform="translate(-70.57 -472.57)"/><path class="cls-2" d="M170.52,552.44V539.82a2.7,2.7,0,0,1-2.71,2.7h12.62a2.71,2.71,0,1,0,0-5.41H167.81a2.7,2.7,0,0,0-2.7,2.71v12.62h0a2.71,2.71,0,0,0,5.41,0Z" transform="translate(-70.57 -472.57)"/><path class="cls-3" d="M165.9,541.73l14.42,14.42h0a2.7,2.7,0,1,0,3.83-3.82h0L169.72,537.9h0a2.7,2.7,0,0,0-3.82,3.83Z" transform="translate(-70.57 -472.57)"/><path class="cls-2" d="M168.71,562.35H144.37a5.41,5.41,0,0,1-5.4-5.41V517.28a5.41,5.41,0,0,1,5.4-5.41h24.34a5.41,5.41,0,0,1,5.41,5.41V531.7h0a1.81,1.81,0,1,0,3.61,0h0V517.28a9,9,0,0,0-9-9H144.37a9,9,0,0,0-9,9v39.66a9,9,0,0,0,9,9h24.34a1.81,1.81,0,1,0,0-3.61Z" transform="translate(-70.57 -472.57)"/><path class="cls-2" d="M143.47,524.49h26.15a.9.9,0,1,0,0-1.8H143.47a.9.9,0,0,0,0,1.8Z" transform="translate(-70.57 -472.57)"/><path class="cls-2" d="M143.47,542.52h9a.9.9,0,1,0,0-1.8h-9a.9.9,0,0,0,0,1.8Z" transform="translate(-70.57 -472.57)"/><path class="cls-2" d="M156.09,542.52h4.51a.9.9,0,1,0,0-1.8h-4.51a.9.9,0,0,0,0,1.8Z" transform="translate(-70.57 -472.57)"/><path class="cls-2" d="M143.47,533.51h12.62a.91.91,0,0,0,0-1.81H143.47a.91.91,0,0,0,0,1.81Z" transform="translate(-70.57 -472.57)"/><path class="cls-2" d="M143.47,551.54H160.6a.91.91,0,0,0,0-1.81H143.47a.91.91,0,0,0,0,1.81Z" transform="translate(-70.57 -472.57)"/><path class="cls-2" d="M159.7,533.51h9.92a.91.91,0,0,0,0-1.81H159.7a.91.91,0,0,0,0,1.81Z" transform="translate(-70.57 -472.57)"/><path class="cls-2" d="M83.19,520v25.24h0a2.71,2.71,0,1,0,5.41,0h0V520h0a2.71,2.71,0,0,0-5.41,0Z" transform="translate(-70.57 -472.57)"/><path class="cls-3" d="M98.51,529.9H73.27a2.71,2.71,0,0,0,0,5.41H98.51a2.71,2.71,0,1,0,0-5.41Z" transform="translate(-70.57 -472.57)"/><path class="cls-2" d="M110.81,553.34h12.75a2.71,2.71,0,0,0,0-5.41H110.81a2.71,2.71,0,0,0,0,5.41Z" transform="translate(-70.57 -472.57)"/><path class="cls-3" d="M98.06,553.34h12.75a2.71,2.71,0,1,0,0-5.41H98.06a2.71,2.71,0,0,0,0,5.41Z" transform="translate(-70.57 -472.57)"/></g></g></svg>