<svg id="Layer_1" data-name="Layer 1" xmlns="http://www.w3.org/2000/svg" viewBox="0 0 69.07 54.7"><defs><style>.cls-1{fill:#fff;}</style></defs><path class="cls-1" d="M-57,38.72V75.37a.84.84,0,0,1-.72.92h-.49a.84.84,0,0,1-.72-.92V38.67h0A1.12,1.12,0,0,0-59,38.3a1.91,1.91,0,0,0-1.73-1.62A2.13,2.13,0,0,0-62.54,39a2,2,0,0,0,1.29,2.1,1.27,1.27,0,0,1,.73,1.22h0c0,.81-.59,1.41-1.22,1.24-1.15-.32-2.7-1.36-2.73-4.58,0-2.6,1.67-4.72,3.72-4.72,1.89,0,3.46,1.81,3.69,4.14A1.29,1.29,0,0,1-57,38.72Z" transform="translate(88.29 -27.82)"/><path class="cls-1" d="M-53.31,76.29h-.37a.79.79,0,0,1-.79-.79V38.58a.79.79,0,0,1,.79-.79h.37a.79.79,0,0,1,.79.79V75.5A.79.79,0,0,1-53.31,76.29Z" transform="translate(88.29 -27.82)"/><path class="cls-1" d="M-42.56,39a4.7,4.7,0,0,1-2.62,4.24c-.61.32-1.28-.25-1.28-1.09h0a1.2,1.2,0,0,1,.6-1.1A2.28,2.28,0,0,0-44.48,39a2.06,2.06,0,0,0-1.79-2.28A2,2,0,0,0-48,38.56h0a.66.66,0,0,1,0,.14V75.37a.84.84,0,0,1-.72.92h-.51a.84.84,0,0,1-.72-.92V39.47A4.43,4.43,0,0,1-50,39c0-2.6,1.67-4.72,3.72-4.72S-42.5,36.36-42.56,39Z" transform="translate(88.29 -27.82)"/><path class="cls-1" d="M-49,79.38h-9a1,1,0,0,1-1-1v-.12a1,1,0,0,1,1-1h9a1,1,0,0,1,1,1v.12A1,1,0,0,1-49,79.38Z" transform="translate(88.29 -27.82)"/><path class="cls-1" d="M-49,34.07h-9a1,1,0,0,1-1-1V33a1,1,0,0,1,1-1h9a1,1,0,0,1,1,1v.12A1,1,0,0,1-49,34.07Z" transform="translate(88.29 -27.82)"/><path class="cls-1" d="M-46.48,82.52H-60.55a1,1,0,0,1-1-1v-.12a1,1,0,0,1,1-1h14.06a1,1,0,0,1,1,1v.12A1,1,0,0,1-46.48,82.52Z" transform="translate(88.29 -27.82)"/><path class="cls-1" d="M-20.3,61.73l-8.47-21.26-.09-.17,0-7.58a2.69,2.69,0,0,0,1.15-2.19,2.75,2.75,0,0,0-2.78-2.71,2.75,2.75,0,0,0-2.78,2.71,2.19,2.19,0,0,0,0,.36c-1.9,1.19-4.32,1.4-7.23.62A20.12,20.12,0,0,1-44.3,30a17.81,17.81,0,0,1-1.61-.93L-46,29h0a1,1,0,0,0-.6-.18H-60.46a1.23,1.23,0,0,0-.39.07,1,1,0,0,0-.74.15A20.19,20.19,0,0,1-67,31.5c-3.06.83-5.59.55-7.53-.82a2.7,2.7,0,0,1-.82,1.77,9.35,9.35,0,0,0,5.14,1.43,14.61,14.61,0,0,0,3.79-.54,22.29,22.29,0,0,0,5.68-2.5,1,1,0,0,0,.34.06h13.87A22.76,22.76,0,0,0-41,33.35a14.55,14.55,0,0,0,3.79.54,9.35,9.35,0,0,0,4.94-1.31,2.81,2.81,0,0,0,1.81.66l0,7.75h0l-8.26,20.74h-1c0,4.65,4.59,8.43,10.26,8.43s10.26-3.77,10.26-8.43ZM-30.9,31.56a1.12,1.12,0,0,1-.7-1,1.14,1.14,0,0,1,1.14-1.12,1.14,1.14,0,0,1,.49.11,1.1,1.1,0,0,1,.65,1,1.14,1.14,0,0,1-1.14,1.12A1.12,1.12,0,0,1-30.9,31.56ZM-37,61.73-29.52,43-22,61.73Z" transform="translate(88.29 -27.82)"/><path class="cls-1" d="M-77.36,27.82a2.75,2.75,0,0,0-2.78,2.71A2.69,2.69,0,0,0-79,32.68a2.82,2.82,0,0,0,1.64.56h0a2.81,2.81,0,0,0,2-.78,2.7,2.7,0,0,0,.82-1.77v-.16A2.74,2.74,0,0,0-77.36,27.82Zm.65,3.63a1.11,1.11,0,0,1-.65.2,1.13,1.13,0,0,1-1.14-1.12,1.12,1.12,0,0,1,1.06-1.11h.08a1.13,1.13,0,0,1,1.14,1.12A1.07,1.07,0,0,1-76.71,31.45Z" transform="translate(88.29 -27.82)"/><path class="cls-1" d="M-68.73,61.94-77.2,40.47a.82.82,0,0,0-.16-.25l0-7A2.84,2.84,0,0,1-79,32.68l.06,8.45L-87.2,61.94h-1.09c0,4.65,4.59,8.43,10.26,8.43s10.26-3.77,10.26-8.43Zm-16.71,0L-78,43l7.48,19Z" transform="translate(88.29 -27.82)"/></svg>