<svg height="90" viewBox="0 0 72 90" width="72" xmlns="http://www.w3.org/2000/svg"><g fill="none" fill-rule="evenodd"><path d="m14.8 57.8c17.4 7 22.3-5.4 37.4 1.6-14.1-11.4-29.2 1.7-37.4-1.6z"/><path d="m45.3 25.8c.8 0 1.5-.6 1.5-1.3s-.7-1.3-1.5-1.3-1.5.6-1.5 1.3.7 1.3 1.5 1.3z"/><g fill="#000" fill-rule="nonzero"><path d="m44 50.8c1.3-2.2 2.7-5.3 2.7-7.8 0-3-1-4.6-1.7-5.6-.4-.6-.6-1-.6-1.4v-.4l.5-1.1c.1 0 1.9-.1 3.7-.9.1-.1.2-.1.3-.2-.4-.6-1-1.7-1-2.4 0-.2.1-.3.3-.3s.3.1.3.3c0 .6.6 1.6 1 2.2 1.8-1 2.7-2.6 2.7-4.5 0-2.2-5.8-7-8.4-8.1-2.2-1-4.4-1-4.9-1h-.3c.4-1.4.4-3.4-.1-5.6-.9-3.8-2.9-6.5-4.5-6.1-1.5.4-2.1 3.4-1.4 6.9-2.7-2.5-5.6-3.7-6.8-2.6-1.2 1.2.1 4.3 2.8 7 1.5 1.5 3.2 2.6 4.5 3-.7.9-1.4 2.6-1.4 5.5-.2 2.6.1 3.5.3 4.1.1.4.2.7.2 1.2 0 1.9-1.5 2.8-3.1 3.5-2.2 1-9 4-9.1 12.3-4.9 1-8.9 2.9-9.6 5.8-.1.3-.1.9 0 1.2.7 2.8 3.9 3.7 7.2 4.2 1.9 9.2-2 17.5-4.6 24.1 7.1 5.2 21.3 6.9 32.9 5-.7-5.4-1-12-.4-17.8.5-4.9 2.3-9.2 3.4-11.9 2.6.6 4.4 2.9 7 2.3-.8-3.7-4.5-8.1-11.9-10.9zm1.3-27.6c.8 0 1.5.6 1.5 1.3s-.7 1.3-1.5 1.3-1.5-.6-1.5-1.3.7-1.3 1.5-1.3zm-30.5 34.6c8.2 3.3 23.3-9.8 37.4 1.6-15.1-7-20 5.4-37.4-1.6z"/><path d="m16.2 19.8c2.3-1.9 2.6-1.8 3 1.2-.5-3-.3-3.1 2.5-2.1-2.8-1.1-2.8-1.3-.5-3.2-2.3 1.9-2.6 1.8-3-1.2.5 3 .3 3.1-2.5 2.1 2.8 1 2.9 1.3.5 3.2z"/><path d="m13.2 29.4c2.3-1.9 2.6-1.8 3 1.2-.5-3-.3-3.1 2.5-2.1-2.8-1.1-2.8-1.3-.5-3.2-2.3 1.9-2.6 1.8-3-1.2.5 3 .3 3.1-2.5 2.1 2.8 1 2.8 1.3.5 3.2z"/><path d="m48.5 18.7c3.5-1.4 3.7-1.2 3.2 2.5.5-3.7.8-3.8 3.8-1.5-3-2.3-2.9-2.6.5-4-3.5 1.4-3.7 1.2-3.2-2.5-.5 3.7-.8 3.8-3.8 1.5 3 2.2 2.9 2.6-.5 4z"/><path d="m56.2 30.9c5.9-6.5 6.6-6.3 9.3 2-2.7-8.3-2.2-8.9 6.4-7.1-8.6-1.8-8.8-2.6-2.9-9.1-5.9 6.5-6.6 6.3-9.3-2 2.7 8.3 2.2 8.9-6.4 7.1 8.5 1.9 8.8 2.6 2.9 9.1z"/><path d="m40.3 10.8c3-1.7 3.7-1.5 5.5 1.4-1.7-3-1.5-3.8 1.4-5.5-3 1.7-3.7 1.5-5.5-1.4 1.8 3 1.6 3.8-1.4 5.5z"/><path d="m30.1 29.8c-3.2 1-3.9.6-4.9-2.5 1 3.2.6 3.9-2.5 4.9 3.2-1 3.9-.6 4.9 2.5-1.1-3.2-.7-3.9 2.5-4.9z"/><path d="m28.6 8.8c-1-3.2-.6-3.9 2.5-4.9-3.2 1-3.9.6-4.9-2.5 1 3.2.6 3.9-2.5 4.9 3.2-1.1 3.9-.7 4.9 2.5z"/><path d="m34.9 3c1.5-.6 1.8-.4 2.4 1.1-.6-1.5-.4-1.8 1.1-2.4-1.5.6-1.8.4-2.4-1 .5 1.4.4 1.7-1.1 2.3z"/><path d="m59 33.7c1.8-.7 2.2-.5 2.9 1.3-.7-1.8-.5-2.2 1.3-2.9-1.8.7-2.2.5-2.9-1.3.7 1.8.5 2.2-1.3 2.9z"/><path d="m45.1 15.4c-1.1.4-1.4.3-1.8-.8.4 1.1.3 1.4-.8 1.8 1.1-.4 1.4-.3 1.8.8-.4-1.1-.3-1.3.8-1.8z"/><path d="m21.3 10.5c1.1-.4 1.4-.3 1.8.8-.4-1.1-.3-1.4.8-1.8-1.1.4-1.4.3-1.8-.8.5 1.1.4 1.4-.8 1.8z"/><path d="m.4 20.8c6.2.3 7.2 1.4 6.8 7.6.3-6.2 1.4-7.2 7.6-6.8-6.2-.3-7.2-1.4-6.8-7.6-.4 6.2-1.4 7.1-7.6 6.8z"/><path d="m24.3 20.2c.6 1.5.4 1.9-1.1 2.5 1.5-.6 1.9-.4 2.5 1.1-.6-1.5-.4-1.9 1.1-2.5-1.5.6-1.9.5-2.5-1.1z"/><path d="m54.4 6c.6 1.5.4 1.9-1.1 2.5 1.5-.6 1.9-.4 2.5 1.1-.6-1.5-.4-1.9 1.1-2.5-1.6.6-1.9.4-2.5-1.1z"/><path d="m12 8.7c.6 1.5.4 1.9-1.1 2.5 1.5-.6 1.9-.4 2.5 1.1-.6-1.5-.4-1.9 1.1-2.5-1.6.6-1.9.4-2.5-1.1z"/></g></g></svg>