<svg xmlns="http://www.w3.org/2000/svg" viewBox="0 0 142.32 101.38"><defs><style>.cls-1{isolation:isolate;}.cls-2,.cls-3,.cls-4{fill:#715091;}.cls-2,.cls-4{opacity:0.6;}.cls-2,.cls-3,.cls-7,.cls-8{mix-blend-mode:multiply;}.cls-10,.cls-11,.cls-5,.cls-6,.cls-7,.cls-8,.cls-9{fill:none;}.cls-10,.cls-5,.cls-7{stroke:#ac97c6;}.cls-10,.cls-11,.cls-5,.cls-6,.cls-7,.cls-8{stroke-linecap:round;}.cls-5,.cls-6{stroke-width:1.41px;}.cls-11,.cls-6,.cls-8,.cls-9{stroke:#715091;}.cls-10,.cls-11,.cls-7,.cls-8{stroke-linejoin:round;}.cls-10,.cls-11,.cls-7,.cls-8,.cls-9{stroke-width:2.83px;}</style></defs><g class="cls-1"><g id="Layer_1" data-name="Layer 1"><path class="cls-2" d="M649.55,489.11l23.64,0h0a2.53,2.53,0,1,0,0-5.06h0l-23.64,0h0a2.54,2.54,0,0,0,0,5.07Z" transform="translate(-594.59 -467.58)"/><path class="cls-3" d="M663.79,480.75l7.61,7.58a2.54,2.54,0,0,1,0-3.58l-7.58,7.61h0a2.53,2.53,0,1,0,3.58,3.58h0l7.59-7.61a2.52,2.52,0,0,0,0-3.58l-7.6-7.59h0a2.53,2.53,0,1,0-3.58,3.59Z" transform="translate(-594.59 -467.58)"/><path class="cls-3" d="M676.67,499.66l-30.39,0a6.75,6.75,0,0,1-6.76-6.74l0-13.51a6.75,6.75,0,0,1,6.74-6.76l30.39-.05a6.77,6.77,0,0,1,6.77,6.75v11h0a2.54,2.54,0,1,0,5.07,0h0l0-11a11.83,11.83,0,0,0-11.84-11.8l-30.39,0a11.84,11.84,0,0,0-11.8,11.84l0,13.51a11.84,11.84,0,0,0,11.84,11.8l30.39,0h0a2.53,2.53,0,1,0,0-5.06Z" transform="translate(-594.59 -467.58)"/><path class="cls-2" d="M646.3,512.37l30.39,0h0a2.54,2.54,0,0,0,0-5.07h0l-30.4.05h0a2.54,2.54,0,1,0,0,5.07Z" transform="translate(-594.59 -467.58)"/><circle class="cls-2" cx="88.84" cy="30.38" r="2.53"/><path class="cls-2" d="M725.61,505.37l-27.35,0V503.8l27.35,0a1.61,1.61,0,1,0,0-3.22l-29,0a1.61,1.61,0,0,0-1.6,1.61l.07,48.26a1.61,1.61,0,0,0,3.22,0l-.06-41.83,27.35,0a1.61,1.61,0,0,0,0-3.22Z" transform="translate(-594.59 -467.58)"/><path class="cls-3" d="M725.6,500.54a1.61,1.61,0,0,0-1.6,1.61l.06,41.83-27.35,0a1.61,1.61,0,1,0,0,3.22l27.35,0v1.61l-27.35,0a1.61,1.61,0,0,0,0,3.22l29-.05a1.61,1.61,0,0,0,1.61-1.61l-.07-48.26A1.62,1.62,0,0,0,725.6,500.54Z" transform="translate(-594.59 -467.58)"/><path class="cls-3" d="M691.05,526.34a.8.8,0,0,0-.8-.81h-4a.81.81,0,1,0,0,1.61h4A.8.8,0,0,0,691.05,526.34Zm-1.91-6.26a.81.81,0,0,0-1.14,0,.81.81,0,0,0,0,1.14l2.84,2.84a.81.81,0,0,0,1.14,0,.8.8,0,0,0,0-1.14Zm1.72,8.53L688,531.46a.81.81,0,0,0,1.14,1.14l2.84-2.85a.81.81,0,0,0-1.14-1.14Zm45.24-3.15h-4a.81.81,0,1,0,0,1.61h4a.79.79,0,0,0,.8-.8A.8.8,0,0,0,736.1,525.46ZM731.47,524l2.84-2.85a.81.81,0,0,0,0-1.14.79.79,0,0,0-1.13,0l-2.84,2.84a.8.8,0,0,0,0,1.14A.81.81,0,0,0,731.47,524Zm0,4.55a.8.8,0,1,0-1.13,1.14l2.85,2.84a.8.8,0,1,0,1.13-1.14Z" transform="translate(-594.59 -467.58)"/><path class="cls-3" d="M718.61,520.11a.94.94,0,0,1,0,1.33l-9.42,9.44a.91.91,0,0,1-.66.28,1,1,0,0,1-.67-.27h0a.94.94,0,0,0-1.33,1.33h0a2.83,2.83,0,0,0,2,.83,2.78,2.78,0,0,0,2-.84l9.41-9.44a2.82,2.82,0,0,0,0-4h0a.94.94,0,0,0-1.33,1.33Z" transform="translate(-594.59 -467.58)"/><path class="cls-3" d="M720,518.78a2.82,2.82,0,0,0-4,0l-7.42,7.44-3-3a2.82,2.82,0,0,0-4,0,2.84,2.84,0,0,0,0,4l5,5a.94.94,0,0,0,1.33-1.33l-5-5a1,1,0,0,1,0-1.34,1,1,0,0,1,.67-.27.94.94,0,0,1,.67.27l3.7,3.69a.94.94,0,0,0,1.33,0l8.08-8.11a.92.92,0,0,1,.67-.27.86.86,0,0,1,.66.27.94.94,0,0,0,1.34-1.33Z" transform="translate(-594.59 -467.58)"/><path class="cls-2" d="M648.84,546.58l15.88,0h0a1.83,1.83,0,1,0,0-3.66h0l-15.88,0h0a1.83,1.83,0,0,0,0,3.66Z" transform="translate(-594.59 -467.58)"/><path class="cls-3" d="M658.62,552.68l0-15.88h0a1.84,1.84,0,0,0-3.67,0h0l0,15.88h0a1.83,1.83,0,0,0,3.66,0Z" transform="translate(-594.59 -467.58)"/><path class="cls-3" d="M635.84,539.64a1.65,1.65,0,0,0,2.08-1.07,19.84,19.84,0,0,1,12.73-12.77c2-.63,1-3.84-1-3.14a23.19,23.19,0,0,0-14.86,14.9A1.65,1.65,0,0,0,635.84,539.64Zm14.87,23.86a19.84,19.84,0,0,1-12.77-12.74c-.63-2-3.84-1-3.14,1C637.83,564.12,656.43,570.88,650.71,563.5Zm27-13.86a1.65,1.65,0,0,0-2.07,1.07,19.88,19.88,0,0,1-12.74,12.77c-2,.63-1,3.84,1,3.14a23.17,23.17,0,0,0,14.86-14.9A1.65,1.65,0,0,0,677.71,549.64Zm-14.87-23.86a19.85,19.85,0,0,1,12.78,12.74,1.65,1.65,0,0,0,3.14-1C675.72,525.16,657.12,518.4,662.84,525.78Z" transform="translate(-594.59 -467.58)"/><path class="cls-4" d="M632.8,544.7a2.18,2.18,0,0,1,2.21-2.33,2.33,2.33,0,1,1-2.21,2.33Z" transform="translate(-594.59 -467.58)"/><path class="cls-4" d="M654.35,566.63a2.18,2.18,0,0,1,2.21-2.33,2.33,2.33,0,1,1-2.21,2.33Z" transform="translate(-594.59 -467.58)"/><path class="cls-4" d="M654.35,523.53a2.19,2.19,0,0,1,2.21-2.33,2.33,2.33,0,1,1-2.21,2.33Z" transform="translate(-594.59 -467.58)"/><path class="cls-4" d="M675.89,544.7a2.19,2.19,0,0,1,2.22-2.33,2.33,2.33,0,1,1-2.22,2.33Z" transform="translate(-594.59 -467.58)"/><line class="cls-5" x1="13.73" y1="70.52" x2="15.81" y2="66.04"/><line class="cls-6" x1="10.78" y1="66.82" x2="11.97" y2="64.26"/><line class="cls-6" x1="18.47" y1="70.38" x2="19.66" y2="67.82"/><path class="cls-7" d="M626.43,499c-6.48,2.26-14.65,8.09-18.18,15.71-3.82,8.25-2.14,13-2.14,13" transform="translate(-594.59 -467.58)"/><path class="cls-8" d="M617.65,533.08s4.73-1.81,8.55-10.05c3.53-7.62,2.69-17.63.23-24" transform="translate(-594.59 -467.58)"/><path class="cls-8" d="M606.11,527.74l5.77,2.67,5.77,2.67" transform="translate(-594.59 -467.58)"/><path class="cls-9" d="M619.9,513.1a4.24,4.24,0,1,1-5.63,2.07A4.24,4.24,0,0,1,619.9,513.1Z" transform="translate(-594.59 -467.58)"/><path class="cls-10" d="M601.53,522.5c-3.16.1-4,2-5.53,5.22" transform="translate(-594.59 -467.58)"/><path class="cls-11" d="M624.61,533.19c2,2.46,1.08,4.39-.41,7.59" transform="translate(-594.59 -467.58)"/></g></g></svg>