<svg xmlns="http://www.w3.org/2000/svg" viewBox="0 0 98.03 106.29"><defs><style>.cls-1{isolation:isolate;}.cls-2,.cls-3{fill:#fa8d29;mix-blend-mode:multiply;}.cls-3{opacity:0.6;}</style></defs><g class="cls-1"><g id="Layer_1" data-name="Layer 1"><path class="cls-2" d="M793.7,506.69H816a2.31,2.31,0,1,0,0-4.61H793.7a2.31,2.31,0,1,0,0,4.61Z" transform="translate(-786.64 -466.12)"/><path class="cls-3" d="M814.23,529.52l-6.68-13.37V498.23a2.31,2.31,0,1,0-4.62,0v17.92l-6.68,13.37a2.31,2.31,0,1,0,4.13,2.06l4.86-9.72,4.86,9.72a2.31,2.31,0,1,0,4.13-2.06Z" transform="translate(-786.64 -466.12)"/><path class="cls-3" d="M837.4,530.63l-6-12V505.15a1.54,1.54,0,0,0-3.08,0v13.49l-6,12a1.54,1.54,0,1,0,2.75,1.38l4.78-9.56,4.78,9.56a1.54,1.54,0,1,0,2.75-1.38Z" transform="translate(-786.64 -466.12)"/><path class="cls-2" d="M821.4,512.08h17.71a1.54,1.54,0,0,0,0-3.08H821.4a1.54,1.54,0,1,0,0,3.08Z" transform="translate(-786.64 -466.12)"/><path class="cls-2" d="M801.39,492.07a3.85,3.85,0,1,1,7.7,0,3.85,3.85,0,0,1-7.7,0Zm3.85,8.47a8.47,8.47,0,1,0-6-2.48A8.42,8.42,0,0,0,805.24,500.54Z" transform="translate(-786.64 -466.12)"/><path class="cls-2" d="M826.79,500.54a3.08,3.08,0,1,1,3.08,3.07A3.08,3.08,0,0,1,826.79,500.54Zm3.08,6.15a6.16,6.16,0,1,0-6.16-6.15A6.17,6.17,0,0,0,829.87,506.69Z" transform="translate(-786.64 -466.12)"/><path class="cls-3" d="M829.46,553.08l-.09-.06a7.4,7.4,0,0,1-2.56,2.11,1,1,0,0,0,0,.1,1.23,1.23,0,1,1-2.35.73s0-.08,0-.11a7.44,7.44,0,0,1-3.3-.31.42.42,0,0,0,0,.1,1.23,1.23,0,0,1-2.18-1.15l.06-.1a7.28,7.28,0,0,1-2.11-2.55l-.1,0a1.23,1.23,0,1,1-.72-2.35l.1,0a7.3,7.3,0,0,1,.32-3.3l-.11,0a1.23,1.23,0,1,1,1.16-2.18l.09.06a7.28,7.28,0,0,1,2.55-2.11l0-.1a1.23,1.23,0,1,1,2.35-.72.36.36,0,0,1,0,.1,7.3,7.3,0,0,1,3.3.32l0-.11a1.23,1.23,0,1,1,2.17,1.16l-.06.09a7.28,7.28,0,0,1,2.11,2.55l.1,0a1.23,1.23,0,1,1,.73,2.35l-.11,0a7.44,7.44,0,0,1-.31,3.3l.1,0a1.23,1.23,0,1,1-1.15,2.17Zm-3.65-8.89a4.92,4.92,0,1,0,2.05,6.65A4.91,4.91,0,0,0,825.81,544.19Z" transform="translate(-786.64 -466.12)"/><path class="cls-2" d="M824.74,569l-.07,0a5.37,5.37,0,0,1-1.91,1.58s0,.05,0,.08a.92.92,0,1,1-1.75.54l0-.08a5.49,5.49,0,0,1-2.47-.23l0,.07a.92.92,0,1,1-1.62-.86.43.43,0,0,0,0-.07,5.47,5.47,0,0,1-1.58-1.91l-.07,0a.92.92,0,1,1-.54-1.75l.08,0a5.49,5.49,0,0,1,.23-2.47l-.08,0a.92.92,0,1,1,.87-1.62l.06,0a5.56,5.56,0,0,1,1.91-1.58l0-.07a.92.92,0,1,1,1.76-.54s0,.05,0,.08a5.45,5.45,0,0,1,2.46.23l0-.07a.94.94,0,0,1,1.25-.39.92.92,0,0,1,.38,1.25l-.05.06a5.56,5.56,0,0,1,1.58,1.91l.08,0a.92.92,0,1,1,.54,1.76l-.08,0a5.45,5.45,0,0,1-.24,2.46l.08,0a.92.92,0,0,1,.38,1.25A.91.91,0,0,1,824.74,569ZM822,562.35a3.68,3.68,0,1,0,1.53,5A3.68,3.68,0,0,0,822,562.35Z" transform="translate(-786.64 -466.12)"/><path class="cls-3" d="M807.75,564.44a12.31,12.31,0,0,1-1.79,1.22,1,1,0,0,1,.1.24,2.46,2.46,0,1,1-4.7,1.44,1,1,0,0,1-.05-.25,11.44,11.44,0,0,1-4.23-.4c0,.08-.06.16-.1.24a2.46,2.46,0,1,1-4.35-2.31c0-.07.09-.14.14-.21a11.61,11.61,0,0,1-2.7-3.28,1.86,1.86,0,0,1-.25.1,2.46,2.46,0,1,1-1.45-4.7l.27-.06a11.5,11.5,0,0,1,.39-4.23,2.34,2.34,0,0,1-.24-.09,2.46,2.46,0,0,1,2.3-4.36l.22.15a11.65,11.65,0,0,1,1.49-1.49,1.86,1.86,0,0,1,2.05-.22,2,2,0,0,1,.55.46,1.84,1.84,0,0,1-.24,2.6,8,8,0,0,0,1.37,13.22,8,8,0,0,0,8.86-.91,1.85,1.85,0,1,1,2.36,2.84Z" transform="translate(-786.64 -466.12)"/><path class="cls-2" d="M809.46,563.09a1.64,1.64,0,0,1-.22-.14,11.65,11.65,0,0,1-1.49,1.49,1.85,1.85,0,0,1-2.36-2.84,8.18,8.18,0,0,0,2-2.41,8,8,0,0,0-12.19-9.9,1.85,1.85,0,0,1-2.36-2.84,11.79,11.79,0,0,1,1.79-1.22,2.56,2.56,0,0,1-.11-.24,2.46,2.46,0,0,1,4.71-1.45c0,.09,0,.17,0,.25a11.66,11.66,0,0,1,4.23.41c0-.08.06-.16.1-.24a2.46,2.46,0,1,1,4.35,2.3,1.64,1.64,0,0,1-.14.22,11.61,11.61,0,0,1,2.7,3.28l.25-.11a2.46,2.46,0,0,1,1.45,4.71,1.28,1.28,0,0,1-.27,0,11.48,11.48,0,0,1-.39,4.23l.24.1a2.46,2.46,0,0,1-2.3,4.35Z" transform="translate(-786.64 -466.12)"/><path class="cls-2" d="M832.74,482l7.88-3.09h0A1.54,1.54,0,1,0,839.5,476h0l-7.88,3.09h0a1.54,1.54,0,0,0,1.12,2.86Z" transform="translate(-786.64 -466.12)"/><path class="cls-2" d="M822.64,475.17l-3.08-7.88h0a1.54,1.54,0,0,0-2.87,1.12h0l3.09,7.89h0a1.54,1.54,0,1,0,2.86-1.13Z" transform="translate(-786.64 -466.12)"/><path class="cls-2" d="M829.2,476.25l3.48-8h0a1.54,1.54,0,0,0-2.82-1.24h0l-3.49,8h0a1.54,1.54,0,0,0,2.83,1.23Z" transform="translate(-786.64 -466.12)"/><path class="cls-2" d="M816.94,478.72l-8-3.49h0a1.54,1.54,0,1,0-1.24,2.82h0l8,3.49h0a1.54,1.54,0,0,0,1.24-2.82Z" transform="translate(-786.64 -466.12)"/><path class="cls-2" d="M831.66,488.51l8,3.49h0a1.54,1.54,0,0,0,1.23-2.82h0l-8-3.49h0a1.54,1.54,0,1,0-1.23,2.82Z" transform="translate(-786.64 -466.12)"/><path class="cls-3" d="M861.79,519.76l6.13,20.88a12,12,0,0,1-8.21,15l-20.89,6.12h0a2.31,2.31,0,0,1-1.3-4.43h0l20.89-6.12a7.33,7.33,0,0,0,5.08-9.3l-6.13-20.88h0a2.31,2.31,0,1,1,4.43-1.3Z" transform="translate(-786.64 -466.12)"/><path class="cls-2" d="M881.3,538.42a2.31,2.31,0,1,0-3.13.92A2.31,2.31,0,0,0,881.3,538.42ZM876.7,542a5.39,5.39,0,1,1,7.31-2.15A5.4,5.4,0,0,1,876.7,542Z" transform="translate(-786.64 -466.12)"/><path class="cls-3" d="M867.77,569.61a5.39,5.39,0,1,1-2.14-7.31A5.38,5.38,0,0,1,867.77,569.61ZM864.15,565a2.31,2.31,0,1,0,.92,3.13A2.31,2.31,0,0,0,864.15,565Z" transform="translate(-786.64 -466.12)"/><path class="cls-3" d="M852.5,538.83l-10.44,3.07h0a1.54,1.54,0,0,1-.87-3h0l10.45-3.06h0a1.54,1.54,0,1,1,.86,3Z" transform="translate(-786.64 -466.12)"/><path class="cls-2" d="M846.79,533.23l3.07,10.44h0a1.54,1.54,0,0,1-3,.87h0l-3.06-10.44h0a1.54,1.54,0,1,1,2.95-.87Z" transform="translate(-786.64 -466.12)"/><path class="cls-3" d="M860.68,518.38l8.1,4.43a2.31,2.31,0,1,1-2.21,4.05l-6.08-3.32-3.32,6.08a2.31,2.31,0,1,1-4-2.22l4.43-8.1A2.31,2.31,0,0,1,860.68,518.38Z" transform="translate(-786.64 -466.12)"/><path class="cls-3" d="M857.45,506.86a2.31,2.31,0,1,0-3.14.92A2.31,2.31,0,0,0,857.45,506.86Zm-4.61,3.62a5.38,5.38,0,1,1,7.31-2.14A5.39,5.39,0,0,1,852.84,510.48Z" transform="translate(-786.64 -466.12)"/><path class="cls-3" d="M882.52,508.82l-10.45,3.06h0a1.54,1.54,0,1,1-.86-2.95h0l10.44-3.07h0a1.54,1.54,0,0,1,.87,3Z" transform="translate(-786.64 -466.12)"/><path class="cls-2" d="M876.81,503.22l3.06,10.44h0a1.54,1.54,0,0,1-3,.87h0l-3.07-10.45h0a1.54,1.54,0,0,1,3-.86Z" transform="translate(-786.64 -466.12)"/></g></g></svg>